# xmcd
#
# Track frame offsets: 
#        150
#        26397
#        50582
#
# Disc length: 1424 seconds
#
# Revision: 2
# Processed by: cddbd v1.5.2PL0 Copyright (c) Steve Scherf et al.
# Submitted via: ExactAudioCopyFreeDBPlugin 1.0
#
DISCID=1c058e03
DTITLE=The Egokid - Sean Connery Vs Man-uro
DYEAR=2002
DGENRE=Indie
TTITLE0=Sean Connery
TTITLE1=Goretti
TTITLE2=Man-uro
EXTD=
EXTT0=
EXTT1=
EXTT2=
PLAYORDER=
